<svg width="33" height="23" viewBox="0 0 33 23" fill="none" xmlns="http://www.w3.org/2000/svg">
<path d="M9.50803 0.619385C9.49751 0.619385 9.48705 0.619422 9.47656 0.619477L9.43359 4.20499C9.44342 4.20488 9.45325 4.20479 9.4631 4.20479C11.7995 4.20479 13.6118 6.06558 17.5507 12.7674L17.7909 13.1754L17.8066 13.2021L20.0116 9.86033L19.9963 9.83452C19.4774 8.98202 18.9789 8.19765 18.5007 7.48145C17.9463 6.65159 17.416 5.91026 16.9014 5.24838C14.2956 1.89708 12.1159 0.619385 9.50803 0.619385Z" fill="url(#paint0_linear_0_1)"/>
<path d="M9.4761 0.619477C6.85559 0.633095 4.53888 2.34474 2.86601 4.96391C2.8611 4.97157 2.8562 4.97925 2.85132 4.98695L5.92206 6.6752C5.92705 6.66757 5.93204 6.65993 5.93705 6.65232C6.91391 5.16667 8.12958 4.21911 9.43314 4.20499C9.44297 4.20488 9.4528 4.20479 9.46265 4.20479L9.50757 0.619385C9.49705 0.619385 9.4866 0.619422 9.4761 0.619477Z" fill="url(#paint1_linear_0_1)"/>
<path d="M2.86614 4.96606C2.86126 4.97372 2.85636 4.9814 2.85145 4.9891C1.7522 6.71756 0.93273 8.83862 0.489866 11.1268C0.487948 11.1367 0.486036 11.1466 0.484131 11.1566L3.93398 11.9788C3.9358 11.9689 3.93761 11.9589 3.93942 11.949C4.30818 9.93801 5.01022 8.07293 5.9222 6.67735C5.92716 6.66972 5.93218 6.66208 5.93719 6.65446L2.86614 4.96606Z" fill="url(#paint2_linear_0_1)"/>
<path d="M3.93944 11.9501L0.489869 11.1279C0.487951 11.1378 0.48604 11.1478 0.484134 11.1577C0.242646 12.4161 0.11979 13.6948 0.117212 14.9766C0.117192 14.987 0.117184 14.9974 0.117189 15.0077L3.65517 15.3274C3.65488 15.317 3.65458 15.3067 3.65435 15.2963C3.6526 15.222 3.65171 15.1466 3.65169 15.0703C3.65346 14.0336 3.74794 12.9993 3.934 11.9799C3.93579 11.97 3.93761 11.96 3.93944 11.9501Z" fill="url(#paint3_linear_0_1)"/>
<path d="M3.76276 16.4374C3.69929 16.069 3.66333 15.6963 3.65517 15.3225C3.65488 15.3121 3.65458 15.3018 3.65435 15.2914L0.117212 14.9717C0.117192 14.982 0.117184 14.9924 0.117189 15.0028C0.117189 15.8006 0.183052 16.5495 0.311056 17.2395C0.312907 17.2495 0.314728 17.2593 0.316605 17.2693L3.76811 16.4673C3.7663 16.4574 3.76453 16.4474 3.76276 16.4374Z" fill="url(#paint4_linear_0_1)"/>
<path d="M4.56903 18.2916C4.18405 17.8671 3.91159 17.2548 3.76834 16.4717C3.76653 16.4618 3.76478 16.4519 3.763 16.4419L0.311279 17.244C0.313128 17.254 0.314949 17.2638 0.316828 17.2737C0.577722 18.6573 1.08938 19.8105 1.82212 20.6828C1.82863 20.6906 1.83517 20.6983 1.84173 20.7061L4.58961 18.3139C4.58275 18.3065 4.57583 18.299 4.56903 18.2916Z" fill="url(#paint5_linear_0_1)"/>
<path d="M14.7949 8.37085C12.7149 11.5935 11.4549 13.6148 11.4549 13.6148C8.68412 18.002 7.72558 18.9853 6.18295 18.9853C5.53925 18.9853 5.00149 18.7538 4.58952 18.3112C4.58265 18.3039 4.57576 18.2964 4.56895 18.2889L1.82202 20.6802C1.82854 20.6879 1.83507 20.6957 1.84164 20.7034C2.85337 21.8947 4.28146 22.5557 6.04816 22.5557C8.72106 22.5557 10.6434 21.2827 14.0609 15.2486C14.0609 15.2486 15.4855 12.7075 16.4655 10.957C15.8585 9.96698 15.306 9.10988 14.7949 8.37085Z" fill="#0082FB"/>
<path d="M18.5025 3.28711C18.4954 3.29464 18.4883 3.30232 18.4813 3.30987C17.9351 3.89769 17.4109 4.55416 16.9009 5.25066C17.4155 5.91256 17.9468 6.65533 18.5012 7.48517C19.1548 6.4663 19.7648 5.64112 20.3627 5.00863C20.3698 5.00115 20.3767 4.99386 20.3838 4.9864L18.5025 3.28711Z" fill="url(#paint6_linear_0_1)"/>
<path d="M28.6006 2.96825C27.1499 1.48796 25.4204 0.619385 23.5714 0.619385C21.6216 0.619385 19.9816 1.69862 18.5024 3.28415C18.4953 3.29166 18.4882 3.29934 18.4812 3.30689L20.3626 5.00565C20.3697 4.99817 20.3766 4.99088 20.3838 4.98344C21.3582 3.95958 22.3014 3.44838 23.3468 3.44838C24.4722 3.44838 25.5254 3.98343 26.4375 4.92141C26.4447 4.92876 26.4518 4.93605 26.4589 4.94345L28.6222 2.99028C28.615 2.98289 28.6077 2.9756 28.6006 2.96825Z" fill="#0082FB"/>
<path d="M32.7942 14.5008C32.713 9.74786 31.0664 5.49881 28.6224 2.98957C28.615 2.98217 28.6079 2.97488 28.6006 2.96753L26.4377 4.92069C26.4449 4.92805 26.452 4.93533 26.4591 4.94273C28.2977 6.85049 29.5589 10.399 29.6736 14.4997C29.6739 14.5101 29.6741 14.5204 29.6745 14.5307L32.7946 14.5317C32.7946 14.5214 32.7944 14.5111 32.7942 14.5008Z" fill="url(#paint7_linear_0_1)"/>
<path d="M32.7945 14.5349C32.7945 14.5246 32.7943 14.5143 32.7941 14.5039L29.6735 14.5029C29.6737 14.5132 29.674 14.5236 29.6744 14.5339C29.6794 14.7264 29.682 14.92 29.682 15.1148C29.682 16.2329 29.5167 17.1367 29.1804 17.7892C29.1754 17.7989 29.1703 17.8086 29.1653 17.8181L31.4918 20.2624C31.4977 20.2535 31.5033 20.2447 31.5091 20.2357C32.3537 18.9193 32.7971 17.0905 32.7971 14.8727C32.7971 14.7599 32.7962 14.6472 32.7945 14.5349Z" fill="url(#paint8_linear_0_1)"/>
<path d="M29.1803 17.7842C29.1753 17.7938 29.1701 17.8036 29.1651 17.8131C28.8742 18.3631 28.4588 18.73 27.916 18.8904L28.9766 22.2669C29.117 22.2187 29.2537 22.1646 29.3868 22.1046C29.4265 22.0867 29.466 22.0683 29.5051 22.0494C29.5276 22.0385 29.5501 22.0274 29.5723 22.0162C30.2737 21.6631 30.8664 21.1424 31.3457 20.4714C31.375 20.4305 31.404 20.3891 31.4323 20.3471C31.4524 20.3174 31.4722 20.2875 31.4917 20.2573C31.4975 20.2485 31.5031 20.2396 31.509 20.2307L29.1803 17.7842Z" fill="url(#paint9_linear_0_1)"/>
<path d="M27.2403 18.9819C26.8848 18.9819 26.5709 18.9284 26.2638 18.7898L25.1777 22.2466C25.7882 22.4572 26.4394 22.5521 27.1656 22.5521C27.8345 22.5521 28.4486 22.4511 29.0055 22.2561L27.9451 18.8808C27.7166 18.95 27.479 18.984 27.2403 18.9819Z" fill="url(#paint10_linear_0_1)"/>
<path d="M25.0675 17.8036C25.0609 17.7958 25.0542 17.7879 25.0472 17.78L22.5483 20.4052C22.5555 20.4128 22.5624 20.4203 22.5693 20.4278C23.4376 21.3625 24.2668 21.9423 25.2071 22.2605L26.2923 18.8062C25.8961 18.6343 25.5127 18.3227 25.0675 17.8036Z" fill="url(#paint11_linear_0_1)"/>
<path d="M25.0472 17.7774C24.2977 16.8969 23.3704 15.4309 21.912 13.0604L20.0112 9.85833L19.996 9.83252L17.7905 13.1734L17.8062 13.2001L19.153 15.4886C20.4585 17.6953 21.522 19.2917 22.5483 20.4025C22.5555 20.4101 22.5624 20.4176 22.5693 20.4251L25.0673 17.8009C25.0606 17.7931 25.0539 17.7853 25.0472 17.7774Z" fill="url(#paint12_linear_0_1)"/>
<defs>
<linearGradient id="paint0_linear_0_1" x1="18.5459" y1="11.8431" x2="11.1321" y2="2.22555" gradientUnits="userSpaceOnUse">
<stop offset="0.0006" stop-color="#0867DF"/>
<stop offset="0.4539" stop-color="#0668E1"/>
<stop offset="0.8591" stop-color="#0064E0"/>
</linearGradient>
<linearGradient id="paint1_linear_0_1" x1="4.2937" y1="5.56638" x2="9.34922" y2="1.76665" gradientUnits="userSpaceOnUse">
<stop offset="0.1323" stop-color="#0064DF"/>
<stop offset="0.9988" stop-color="#0064E0"/>
</linearGradient>
<linearGradient id="paint2_linear_0_1" x1="2.1666" y1="11.2163" x2="4.21502" y2="6.1114" gradientUnits="userSpaceOnUse">
<stop offset="0.0147" stop-color="#0072EC"/>
<stop offset="0.6881" stop-color="#0064DF"/>
</linearGradient>
<linearGradient id="paint3_linear_0_1" x1="1.89322" y1="14.9155" x2="2.13086" y2="11.7895" gradientUnits="userSpaceOnUse">
<stop offset="0.0731" stop-color="#007CF6"/>
<stop offset="0.9943" stop-color="#0072EC"/>
</linearGradient>
<linearGradient id="paint4_linear_0_1" x1="2.02133" y1="16.6087" x2="1.85138" y2="15.3566" gradientUnits="userSpaceOnUse">
<stop offset="0.0731" stop-color="#007FF9"/>
<stop offset="1" stop-color="#007CF6"/>
</linearGradient>
<linearGradient id="paint5_linear_0_1" x1="1.92374" y1="16.9422" x2="2.97935" y2="19.1587" gradientUnits="userSpaceOnUse">
<stop offset="0.0731" stop-color="#007FF9"/>
<stop offset="1" stop-color="#0082FB"/>
</linearGradient>
<linearGradient id="paint6_linear_0_1" x1="17.8841" y1="6.17784" x2="19.2751" y2="4.27326" gradientUnits="userSpaceOnUse">
<stop offset="0.2799" stop-color="#007FF8"/>
<stop offset="0.9141" stop-color="#0082FB"/>
</linearGradient>
<linearGradient id="paint7_linear_0_1" x1="28.3217" y1="3.68853" x2="31.2479" y2="14.345" gradientUnits="userSpaceOnUse">
<stop stop-color="#0082FB"/>
<stop offset="0.9995" stop-color="#0081FA"/>
</linearGradient>
<linearGradient id="paint8_linear_0_1" x1="31.8871" y1="14.7714" x2="30.0399" y2="18.4666" gradientUnits="userSpaceOnUse">
<stop offset="0.0619" stop-color="#0081FA"/>
<stop offset="1" stop-color="#0080F9"/>
</linearGradient>
<linearGradient id="paint9_linear_0_1" x1="28.6247" y1="20.4433" x2="30.3346" y2="19.2904" gradientUnits="userSpaceOnUse">
<stop stop-color="#027AF3"/>
<stop offset="1" stop-color="#0080F9"/>
</linearGradient>
<linearGradient id="paint10_linear_0_1" x1="25.9599" y1="20.671" x2="28.3207" y2="20.671" gradientUnits="userSpaceOnUse">
<stop stop-color="#0377EF"/>
<stop offset="0.9994" stop-color="#0279F1"/>
</linearGradient>
<linearGradient id="paint11_linear_0_1" x1="23.9074" y1="19.3616" x2="25.6135" y2="20.3553" gradientUnits="userSpaceOnUse">
<stop offset="0.0019" stop-color="#0471E9"/>
<stop offset="1" stop-color="#0377EF"/>
</linearGradient>
<linearGradient id="paint12_linear_0_1" x1="18.7298" y1="11.9212" x2="24.2341" y2="18.7726" gradientUnits="userSpaceOnUse">
<stop offset="0.2765" stop-color="#0867DF"/>
<stop offset="1" stop-color="#0471E9"/>
</linearGradient>
</defs>
</svg>
